:SAMPLES-PER-SECOND 30
:FULLY-SPECIFIED
:DEGREES
341
root  2.46051 18.8037 -16.8611 -118.314 -1.00868 -176.214
RightUpLeg  -63.3923 -1.29948 14.1564
RightLeg  108.888 18.7827 -8.0232
RightFoot  2.56645 -0.611169 4.27802
RightToes  -5.82073e-011 -3.18055e-015 -2.98177e-016
Spine  30.0209 0.56166 5.19968
Spine1  -8.55551 1.04561 5.69656
HEad  -31.7587 -1.86212 -0.402546
LeftShoulder1  -3.88251e-019 9.70628e-020 -3.87848e-018
LeftArm  -1.35829 -27.7609 -70.6321
LeftForeArm  1.10183 -1.40399 -7.43145
LeftHand  -9.70244 -8.55813 72.2895
RightShoulder  4.50915 8.76041 22.5199
RightArm  3.60319 -5.34678 55.3148
RightForeArm  19.009 34.6359 -19.8544
RightHand  -10.1974 11.0691 -64.0724
LeftUpLeg  -45.3396 4.45444 2.4411
LeftLeg  100.781 -14.0888 3.04854
LeftFoot  -22.955 -1.64894 -18.2919
LeftToes  -2.27483e-011 -5.53417e-011 9.36564e-012
342
root  2.66977 18.8938 -17.3036 -118.626 -0.787537 -178.01
RightUpLeg  -61.4992 -2.76702 13.4576
RightLeg  107.255 18.8867 -8.91877
RightFoot  1.68958 -0.686463 5.12649
RightToes  -5.82073e-011 -3.18055e-015 -2.98177e-016
Spine  31.0683 0.2581 4.12923
Spine1  -9.50072 0.653876 3.72774
HEad  -32.814 -3.86467 0.0304709
LeftShoulder1  -3.88251e-019 9.70628e-020 -3.87848e-018
LeftArm  -0.197371 -27.7637 -72.0687
LeftForeArm  2.40306 -1.53588 -7.68143
LeftHand  -9.79743 -8.55309 72.8451
RightShoulder  4.08143 8.29031 20.7707
RightArm  1.93555 -1.06281 56.0341
RightForeArm  15.5164 34.5476 -19.6558
RightHand  -9.31208 10.3747 -61.6241
LeftUpLeg  -49.3564 3.84609 1.47001
LeftLeg  106.277 -14.8149 4.47151
LeftFoot  -26.0883 -2.12295 -17.8435
LeftToes  -2.27483e-011 -5.53417e-011 9.36564e-012
343
root  2.83806 18.9124 -17.7191 -119.179 -0.844894 -179.045
RightUpLeg  -59.2885 -3.87179 13.4444
RightLeg  105.671 19.0069 -9.96243
RightFoot  0.765607 -0.685682 5.48503
RightToes  -5.82073e-011 -3.18055e-015 -2.98177e-016
Spine  32.3552 0.0606861 4.22712
Spine1  -10.2402 0.697993 1.09414
HEad  -33.5584 -5.80897 0.562802
LeftShoulder1  -3.88251e-019 9.70628e-020 -3.87848e-018
LeftArm  0.205755 -27.6754 -73.7696
LeftForeArm  4.18973 -2.02753 -7.50613
LeftHand  -9.84553 -8.51923 73.2527
RightShoulder  3.70961 7.8189 19.2683
RightArm  0.299236 4.65002 56.0279
RightForeArm  14.1203 32.8967 -18.5299
RightHand  -8.58795 9.62373 -60.0071
LeftUpLeg  -53.6832 3.49283 0.869559
LeftLeg  111.609 -16.4137 7.12525
LeftFoot  -28.9041 -2.29175 -15.8866
LeftToes  -2.27483e-011 -5.53417e-011 9.36564e-012
344
root  2.94361 18.8662 -18.1486 -119.721 -0.923965 -179.547
RightUpLeg  -57.0158 -4.6874 13.5233
RightLeg  104.253 18.9611 -10.5745
RightFoot  -0.24122 -0.591498 5.12303
RightToes  -5.82073e-011 -3.18055e-015 -2.98177e-016
Spine  33.3831 -0.102688 5.06692
Spine1  -10.5114 0.995506 -1.97101
HEad  -33.6816 -7.62086 0.906425
LeftShoulder1  -3.88251e-019 9.70628e-020 -3.87848e-018
LeftArm  0.565307 -27.5854 -75.2893
LeftForeArm  5.94858 -3.00008 -7.34289
LeftHand  -9.86763 -8.52598 73.3487
RightShoulder  3.36507 7.39868 17.7584
RightArm  -1.74365 10.7786 55.6127
RightForeArm  13.7971 30.1438 -16.8472
RightHand  -8.27926 9.19708 -59.605
LeftUpLeg  -58.1209 3.19968 0.248579
LeftLeg  116.319 -18.3316 9.41791
LeftFoot  -31.2506 -1.7201 -10.2286
LeftToes  -2.27483e-011 -5.53417e-011 9.36564e-012
345
root  3.03739 18.7923 -18.6345 -119.803 -0.536453 -179.98
RightUpLeg  -55.3186 -5.09979 13.1511
RightLeg  102.828 18.8722 -11.1408
RightFoot  -0.826756 -0.499265 4.54356
RightToes  -5.82073e-011 -3.18055e-015 -2.98177e-016
Spine  33.4224 -0.217557 5.5173
Spine1  -9.62488 1.23433 -4.93282
HEad  -33.6082 -8.84619 1.44964
LeftShoulder1  -3.88251e-019 9.70628e-020 -3.87848e-018
LeftArm  1.65275 -28.0412 -76.0583
LeftForeArm  6.76758 -3.85187 -7.51671
LeftHand  -9.95661 -8.58996 73.5825
RightShoulder  3.03008 6.97143 16.2357
RightArm  -2.90486 16.9886 55.3187
RightForeArm  12.8054 27.0161 -15.0372
RightHand  -8.08872 8.96735 -59.2267
LeftUpLeg  -62.8054 2.86221 -0.685234
LeftLeg  120.948 -18.7764 8.67583
LeftFoot  -34.7562 -1.59239 -7.74453
LeftToes  -2.27483e-011 -5.53417e-011 9.36564e-012
346
root  3.12598 18.7004 -19.1696 -119.765 0.387482 179.876
RightUpLeg  -53.7614 -4.91958 12.4464
RightLeg  101.232 18.8239 -12.0473
RightFoot  -0.97867 -0.441204 4.063
RightToes  -5.82073e-011 -3.18055e-015 -2.98177e-016
Spine  32.8718 -0.378601 5.7912
Spine1  -7.73681 1.48566 -8.04225
HEad  -33.7528 -9.35911 2.32719
LeftShoulder1  -3.88251e-019 9.70628e-020 -3.87848e-018
LeftArm  3.03666 -29.0463 -76.05
LeftForeArm  6.9009 -4.30936 -7.80401
LeftHand  -10.1531 -8.73522 74.0743
RightShoulder  2.5889 6.31718 14.2301
RightArm  -1.36635 23.1089 55.7299
RightForeArm  12.439 23.2399 -13.0857
RightHand  -7.71068 8.65962 -57.9378
LeftUpLeg  -67.292 2.65877 -1.66379
LeftLeg  125.018 -17.4108 5.76142
LeftFoot  -38.8163 -2.12671 -8.83842
LeftToes  -2.27483e-011 -5.53417e-011 9.36564e-012
347
root  3.19639 18.5994 -19.7344 -119.991 1.74014 -179.631
RightUpLeg  -51.7532 -4.13464 11.6526
RightLeg  99.4427 18.7164 -13.057
RightFoot  -1.17597 -0.399765 3.74594
RightToes  -5.82073e-011 -3.18055e-015 -2.98177e-016
Spine  32.4856 -0.655487 6.43381
Spine1  -5.6484 1.97532 -11.949
HEad  -33.8651 -9.36266 3.30274
LeftShoulder1  -3.88251e-019 9.70628e-020 -3.87848e-018
LeftArm  4.15304 -29.9209 -75.6205
LeftForeArm  7.14087 -4.48135 -7.9004
LeftHand  -10.3771 -8.92434 74.5255
RightShoulder  1.88235 5.18916 10.7048
RightArm  2.19001 27.7967 57.4018
RightForeArm  14.0671 18.3122 -11.0813
RightHand  -7.49009 8.4185 -57.3764
LeftUpLeg  -71.0798 2.88194 -2.74134
LeftLeg  127.5 -16.2775 3.93587
LeftFoot  -40.8241 -2.33626 -8.99861
LeftToes  -2.27483e-011 -5.53417e-011 9.36564e-012
348
root  3.25937 18.532 -20.3375 -120.616 3.40977 -178.631
RightUpLeg  -49.1547 -2.98941 10.7457
RightLeg  97.4146 18.457 -13.8889
RightFoot  -1.3797 -0.432256 4.1291
RightToes  -5.82073e-011 -3.18055e-015 -2.98177e-016
Spine  32.3344 -1.05829 7.15475
Spine1  -3.41324 2.63067 -16.2367
HEad  -33.494 -8.72898 4.28222
LeftShoulder1  -3.88251e-019 9.70628e-020 -3.87848e-018
LeftArm  5.01475 -30.3385 -74.7935
LeftForeArm  7.50383 -4.53785 -7.70575
LeftHand  -10.5216 -9.02013 74.9125
RightShoulder  1.04608 3.69189 5.93392
RightArm  4.86386 29.8192 60.4914
RightForeArm  15.6174 13.1573 -9.4764
RightHand  -7.98986 8.62617 -59.7639
LeftUpLeg  -73.7768 3.60611 -4.0558
LeftLeg  128.656 -16.7467 4.35289
LeftFoot  -38.8061 -2.03833 -8.44328
LeftToes  -2.27483e-011 -5.53417e-011 9.36564e-012
349
root  3.31566 18.4645 -20.9692 -121.166 5.04976 -177.508
RightUpLeg  -46.5873 -1.82092 9.86555
RightLeg  95.2912 18.0916 -14.5571
RightFoot  -1.26266 -0.540815 5.11693
RightToes  -5.82073e-011 -3.18055e-015 -2.98177e-016
Spine  31.4067 -1.45227 7.49505
Spine1  -0.625802 3.20336 -19.4182
HEad  -32.3853 -7.19758 5.11333
LeftShoulder1  -3.88251e-019 9.70628e-020 -3.87848e-018
LeftArm  5.20591 -30.2555 -73.0871
LeftForeArm  7.70061 -4.67504 -7.35637
LeftHand  -10.589 -8.99289 75.376
RightShoulder  0.473257 2.45254 2.19081
RightArm  5.26724 29.9446 64.4276
RightForeArm  14.5247 9.53565 -8.85724
RightHand  -9.07108 9.23671 -64.0867
LeftUpLeg  -75.5233 4.53601 -5.42813
LeftLeg  129.368 -18.3878 6.12167
LeftFoot  -32.982 -1.46151 -7.78544
LeftToes  -2.27483e-011 -5.53417e-011 9.36564e-012
350
root  3.33554 18.3354 -21.6011 -121.391 6.44688 -176.248
RightUpLeg  -44.3149 -0.657384 9.21969
RightLeg  93.2637 17.6938 -15.1377
RightFoot  -1.0542 -0.60331 5.6088
RightToes  -5.82073e-011 -3.18055e-015 -2.98177e-016
Spine  29.4654 -1.47481 7.55001
Spine1  2.43845 3.8454 -20.6992
HEad  -30.6638 -5.24004 5.45449
LeftShoulder1  -3.88251e-019 9.70628e-020 -3.87848e-018
LeftArm  4.06095 -29.4201 -70.7884
LeftForeArm  8.12482 -4.99724 -7.03188
LeftHand  -10.7139 -9.04852 75.8085
RightShoulder  0.315757 2.00221 1.10612
RightArm  5.04701 29.7387 67.7724
RightForeArm  12.2295 8.38561 -9.01467
RightHand  -9.94129 9.75306 -67.1057
LeftUpLeg  -76.1826 5.57592 -6.53758
LeftLeg  129.797 -20.1468 7.98029
LeftFoot  -26.2098 -0.900246 -7.20164
LeftToes  -2.27483e-011 -5.53417e-011 9.36564e-012
351
root  3.30094 18.2161 -22.2507 -121.7 7.84181 -174.929
RightUpLeg  -41.9334 0.504382 8.46578
RightLeg  91.2346 17.234 -15.5202
RightFoot  -1.0674 -0.581294 5.40881
RightToes  -5.82073e-011 -3.18055e-015 -2.98177e-016
Spine  27.865 -1.14138 7.43414
Spine1  4.83202 4.64389 -20.9051
HEad  -28.8936 -3.51152 5.39637
LeftShoulder1  -3.88251e-019 9.70628e-020 -3.87848e-018
LeftArm  1.92467 -27.5919 -68.9281
LeftForeArm  9.11707 -5.25088 -6.77931
LeftHand  -10.9929 -9.31628 76.189
RightShoulder  0.389748 2.19281 1.63501
RightArm  5.79096 29.6624 69.9108
RightForeArm  11.8874 8.61997 -8.84532
RightHand  -10.2497 9.94091 -68.0647
LeftUpLeg  -75.4083 6.79574 -7.65664
LeftLeg  129.137 -21.4803 9.62468
LeftFoot  -20.4696 -0.579552 -8.25828
LeftToes  -2.27483e-011 -5.53417e-011 9.36564e-012
